#!OML:ASF H:\Terrain\Patient Classification 1\Walking\liu\liu.ASF
:FULLY-SPECIFIED
:DEGREES
81
root 13.965105 24.593552 -38.318550 6.474705 -11.995770 3.523065
lowerback -7.666305 -1.574250 -5.775510
upperback -2.355210 -1.875390 3.945270
thorax 2.081040 -0.944514 7.211610
lowerneck -33.225449 -5.984910 -17.578051
upperneck 28.886402 -6.855000 18.063301
head 15.575100 -2.348115 8.398890
rclavicle 0.000000 0.000000
rhumerus -65.592751 20.950050 -133.660507
rradius 59.999851
rwrist -33.197701
rhand -45.994202 -33.996300
rfingers 10.687531
rthumb -5.936250 -78.910797
lclavicle 0.000000 0.000000
lhumerus -41.702999 -18.189899 131.113052
lradius 38.612400
lwrist 1.634205
lhand -19.384800 -35.962650
lfingers 10.687531
lthumb 19.750801 8.383619
rfemur -32.699402 0.716322 27.088949
rtibia 93.697350
rfoot -23.694750 -18.499651
rtoes -14.934690
lfemur -24.889500 4.399635 -40.544399
ltibia 41.331299
lfoot -23.576250 14.060085
ltoes 1.282926
82
root 13.974960 24.588449 -38.151749 6.399600 -11.617186 3.586305
lowerback -7.701585 -1.709265 -5.751015
upperback -2.272425 -2.054520 3.891045
thorax 2.204550 -1.038714 7.127640
lowerneck -33.348148 -5.912655 -17.501400
upperneck 29.067749 -6.788400 18.092249
head 15.652649 -2.305215 8.415030
rclavicle -0.000000 0.000000
rhumerus -65.650948 21.024151 -133.677155
rradius 60.136047
rwrist -33.025051
rhand -45.946503 -33.812248
rfingers 10.687531
rthumb -5.890200 -78.727501
lclavicle -0.000000 0.000000
lhumerus -40.861649 -18.862949 130.841553
lradius 39.417149
lwrist 2.399280
lhand -16.668751 -34.864349
lfingers 10.687531
lthumb 22.368149 9.300570
rfemur -34.214699 1.327936 27.261749
rtibia 92.921700
rfoot -24.801300 -18.636751
rtoes -16.918501
lfemur -24.080849 4.254570 -40.693802
ltibia 41.218498
lfoot -23.787601 13.804754
ltoes -0.183127
83
root 13.985386 24.577051 -37.981651 6.152205 -11.191290 3.755610
lowerback -7.542360 -1.816500 -5.864370
upperback -2.254440 -2.195730 3.846030
thorax 2.151405 -1.108563 7.137840
lowerneck -33.533249 -5.971980 -17.513550
upperneck 29.618252 -6.849915 17.919449
head 15.889649 -2.350875 8.364300
rclavicle -0.000000 0.000000
rhumerus -65.778900 20.649899 -133.506744
rradius 60.029400
rwrist -32.594101
rhand -46.035000 -34.804497
rfingers 10.687531
rthumb -5.975640 -79.718246
lclavicle -0.000000 0.000000
lhumerus -40.202999 -19.521000 130.710602
lradius 40.317451
lwrist 2.908350
lhand -15.110850 -34.473900
lfingers 10.687531
lthumb 23.868752 9.575550
rfemur -35.496151 1.717725 27.265051
rtibia 92.058899
rfoot -25.611000 -18.889648
rtoes -16.291050
lfemur -23.072849 4.041495 -40.974148
ltibia 41.037151
lfoot -23.123249 13.921515
ltoes -1.411527
84
root 14.000265 24.552601 -37.808403 5.706585 -10.903259 4.081725
lowerback -7.352835 -1.849440 -6.096030
upperback -2.088165 -2.232600 3.777360
thorax 2.225100 -1.132553 7.196970
lowerneck -33.734699 -6.082680 -17.739750
upperneck 29.956200 -6.895335 17.775600
head 16.057499 -2.401830 8.355556
rclavicle 0.000000 -0.000000
rhumerus -65.772598 20.467649 -133.217850
rradius 59.857052
rwrist -32.603550
rhand -46.286999 -35.992798
rfingers 10.687531
rthumb -6.219060 -80.901901
lclavicle 0.000000 -0.000000
lhumerus -39.426750 -20.434650 130.744354
lradius 41.378849
lwrist 3.804015
lhand -14.978880 -34.678497
lfingers 10.687531
lthumb 23.995800 9.360750
rfemur -36.447449 2.016000 27.061802
rtibia 91.053299
rfoot -26.455050 -19.280399
rtoes -13.753244
lfemur -21.801600 3.747180 -41.446503
ltibia 40.865101
lfoot -23.162251 14.230154
ltoes -3.426675
85
root 14.012775 24.533249 -37.635601 5.647155 -10.612740 4.354830
lowerback -7.653600 -1.768455 -6.192030
upperback -1.698150 -2.104755 3.604275
thorax 2.779560 -1.090347 7.071135
lowerneck -34.363052 -6.377640 -17.820450
upperneck 29.905350 -7.197525 17.745451
head 16.200150 -2.531235 8.310630
rclavicle -0.000000 -0.000000
rhumerus -65.210556 20.168549 -132.930145
rradius 59.800652
rwrist -32.867699
rhand -46.519051 -36.121048
rfingers 10.687531
rthumb -6.443040 -81.025803
lclavicle -0.000000 -0.000000
lhumerus -38.028152 -21.642000 130.563141
lradius 42.349197
lwrist 4.807200
lhand -15.241501 -34.907852
lfingers 10.687531
lthumb 23.742901 9.151560
rfemur -37.779297 2.278230 26.876850
rtibia 89.905045
rfoot -27.112799 -19.366798
rtoes -17.438850
lfemur -20.967751 3.532335 -41.856598
ltibia 40.705349
lfoot -24.015602 14.191620
ltoes -5.257950
86
root 14.025015 24.514500 -37.459652 5.818170 -9.934500 4.422150
lowerback -8.055614 -1.851510 -6.121905
upperback -1.510275 -2.203380 3.543105
thorax 3.206520 -1.153338 6.952155
lowerneck -34.428600 -6.655305 -18.042150
upperneck 29.691301 -7.534605 17.936100
head 16.194149 -2.677110 8.358254
rclavicle 0.000000 0.000000
rhumerus -64.864647 19.830151 -132.668549
rradius 59.780102
rwrist -32.820297
rhand -45.953102 -36.568802
rfingers 10.687531
rthumb -5.896650 -81.484055
lclavicle 0.000000 0.000000
lhumerus -36.806252 -22.494900 130.419601
lradius 43.024200
lwrist 5.645910
lhand -15.449100 -35.095200
lfingers 10.687531
lthumb 23.542950 8.979959
rfemur -39.238201 2.350785 26.877451
rtibia 88.637550
rfoot -27.552149 -19.109850
rtoes -10.688745
lfemur -20.368950 3.286770 -42.020851
ltibia 40.490852
lfoot -24.808050 13.705530
ltoes -3.502800
87
root 14.039835 24.498451 -37.278450 5.577945 -9.301095 4.527030
lowerback -7.928310 -1.968735 -6.155625
upperback -1.589310 -2.364315 3.627240
thorax 3.074760 -1.229463 7.049850
lowerneck -33.775051 -6.743640 -18.531300
upperneck 29.690399 -7.581330 17.996849
head 16.094250 -2.749110 8.454255
rclavicle 0.000000 0.000000
rhumerus -65.338501 19.745850 -132.340958
rradius 59.830650
rwrist -32.703300
rhand -44.824200 -37.680901
rfingers 10.687531
rthumb -4.806375 -82.614456
lclavicle 0.000000 0.000000
lhumerus -36.362251 -23.397449 130.806305
lradius 43.603199
lwrist 6.356190
lhand -16.558498 -35.629951
lfingers 10.687531
lthumb 22.474499 8.526945
rfemur -40.192200 2.517495 26.797949
rtibia 87.262054
rfoot -28.446751 -19.231350
rtoes -10.849965
lfemur -19.263149 3.107115 -42.220497
ltibia 40.270950
lfoot -25.495499 13.336620
ltoes 0.118240
88
root 14.050275 24.494400 -37.093052 5.411805 -9.053220 4.715055
lowerback -8.119995 -1.794030 -6.154560
upperback -1.444381 -2.120760 3.488220
thorax 3.300885 -1.115578 6.918210
lowerneck -33.717148 -7.039875 -18.646801
upperneck 29.742599 -7.920555 17.803051
head 16.148399 -2.937690 8.345730
rclavicle -0.000000 0.000000
rhumerus -65.384552 19.097099 -132.021591
rradius 59.606247
rwrist -32.733597
rhand -44.671200 -38.214149
rfingers 10.687531
rthumb -4.658700 -83.149948
lclavicle -0.000000 0.000000
lhumerus -35.565899 -24.977699 130.954208
lradius 44.537849
lwrist 7.378905
lhand -17.207399 -35.967598
lfingers 10.687531
lthumb 21.849150 8.235270
rfemur -41.257202 3.026025 26.551052
rtibia 85.792496
rfoot -29.478899 -19.366199
rtoes -15.559200
lfemur -18.208950 3.189330 -42.517200
ltibia 40.024948
lfoot -26.076599 13.272015
ltoes -0.583865
89
root 14.057775 24.493349 -36.911850 5.690265 -8.612625 4.537485
lowerback -8.700525 -1.748475 -5.808060
upperback -1.408422 -2.058690 3.399600
thorax 3.645810 -1.090168 6.624960
lowerneck -33.523048 -7.270395 -18.601801
upperneck 29.761051 -8.260665 17.698200
head 16.162951 -3.107490 8.241675
rclavicle -0.000000 0.000000
rhumerus -65.415901 18.579149 -132.032547
rradius 59.334297
rwrist -32.311802
rhand -45.372299 -38.040302
rfingers 10.687531
rthumb -5.335740 -82.965302
lclavicle -0.000000 0.000000
lhumerus -34.778999 -26.013451 130.722000
lradius 45.530853
lwrist 8.517691
lhand -16.986149 -36.266701
lfingers 10.687531
lthumb 22.062450 7.920600
rfemur -42.657299 3.529980 26.691151
rtibia 84.201752
rfoot -30.353699 -19.164301
rtoes -18.445950
lfemur -17.633701 3.301230 -42.385052
ltibia 39.622952
lfoot -26.378099 12.904816
ltoes -2.866230
